<?xml version="1.0" standalone="no"?>
<!DOCTYPE svg PUBLIC "-//W3C//DTD SVG 20010904//EN"
 "http://www.w3.org/TR/2001/REC-SVG-20010904/DTD/svg10.dtd">
<svg version="1.0" xmlns="http://www.w3.org/2000/svg"
 width="1024.000000pt" height="1024.000000pt" viewBox="0 0 1024.000000 1024.000000"
 preserveAspectRatio="xMidYMid meet">
<metadata>
Created by potrace 1.11, written by Peter Selinger 2001-2013
</metadata>
<g transform="translate(0.000000,1024.000000) scale(0.100000,-0.100000)"
fill="#000000" stroke="none">
<path d="M2180 8588 c-97 -19 -160 -43 -230 -89 -150 -96 -240 -220 -287 -392
-14 -52 -17 -121 -19 -432 -1 -203 -3 -373 -3 -376 -1 -4 -178 -7 -393 -7
-248 0 -403 -4 -420 -11 -44 -17 -52 -44 -53 -191 -2 -156 5 -191 42 -215 25
-17 133 -18 1918 -19 1666 -1 1894 -3 1910 -16 35 -29 42 -70 40 -217 -2 -160
-8 -175 -74 -192 -21 -5 -735 -9 -1656 -9 -891 0 -1635 -1 -1653 -1 -23 -1
-43 -10 -63 -30 l-29 -29 0 -157 0 -157 29 -29 29 -29 1449 -1 c796 0 1457 -2
1468 -4 11 -2 30 -16 43 -30 21 -25 22 -35 22 -176 0 -162 -9 -201 -52 -215
-13 -5 -772 -8 -1688 -9 -1302 -1 -1670 -3 -1687 -13 -40 -22 -47 -50 -48
-192 -2 -145 6 -185 39 -212 20 -16 112 -18 1473 -18 1011 0 1459 -3 1476 -11
44 -20 51 -45 52 -194 2 -154 -5 -188 -43 -213 -24 -15 -108 -17 -1076 -17
l-1051 0 0 -915 c-1 -672 2 -939 12 -1006 40 -297 160 -534 381 -752 154 -152
333 -258 533 -316 85 -24 102 -28 226 -44 62 -9 289 -8 328 1 11 3 40 8 65 12
241 39 478 162 660 345 114 113 131 133 192 225 128 193 203 435 207 662 l1
51 870 0 870 0 1 -47 c2 -83 8 -136 24 -221 45 -231 159 -449 329 -628 254
-267 560 -402 926 -407 74 -1 153 2 175 6 22 4 60 10 85 13 99 13 275 72 370
124 228 125 435 332 548 549 92 178 134 335 146 558 l3 50 348 2 c387 2 406 4
463 67 52 57 59 102 57 386 -2 278 -5 298 -61 353 -53 53 -78 60 -224 63 -74
2 -138 3 -142 4 -5 0 -8 348 -8 773 0 737 -1 777 -20 851 -11 42 -36 109 -56
149 -35 67 -93 128 -788 823 -565 564 -766 759 -812 787 -33 20 -101 48 -150
62 -88 26 -92 26 -431 27 -189 0 -344 3 -344 7 -1 3 -2 159 -4 346 -1 187 -5
367 -9 400 -9 66 -50 191 -72 216 -8 8 -14 19 -14 24 0 9 -52 74 -96 120 -75
78 -180 140 -294 171 -61 17 -166 18 -1890 19 -1004 1 -1845 -3 -1870 -7z
m5521 -2627 l679 -678 0 -82 0 -81 -977 2 -978 3 -1 750 c0 413 1 753 3 758 2
4 137 7 300 7 l295 0 679 -679z m-4558 -2391 c358 -112 545 -504 411 -862 -66
-175 -244 -340 -419 -387 -113 -30 -245 -32 -351 -6 -274 69 -479 323 -486
606 -6 199 54 352 192 490 130 130 290 192 480 184 70 -2 128 -11 173 -25z
m4291 14 c206 -40 401 -211 472 -415 97 -276 7 -570 -228 -748 -58 -43 -164
-96 -213 -104 -17 -3 -43 -9 -60 -13 -68 -15 -210 -7 -299 17 -192 52 -367
223 -432 422 -50 153 -35 370 34 497 75 137 182 242 307 299 41 20 130 47 175
54 52 8 177 3 244 -9z"/>
</g>
</svg>
